<?xml version="1.0" encoding="utf-8"?>
<!-- Generator: Adobe Illustrator 24.3.0, SVG Export Plug-In . SVG Version: 6.00 Build 0)  -->
<svg version="1.1" id="Layer_1" xmlns="http://www.w3.org/2000/svg" xmlns:xlink="http://www.w3.org/1999/xlink" x="0px" y="0px"
	 viewBox="0 0 837.3 270" style="enable-background:new 0 0 837.3 270;" xml:space="preserve">
<g>
	<path d="M437.8,250c0,3.4-0.9,6.7-2.6,9.7c-5.4,9.3-17.3,12.5-26.6,7.1L10.2,36.9c-6-3.5-9.7-10-9.7-16.9c0-3.4,0.9-6.7,2.6-9.7
		C5.7,5.7,9.9,2.5,15,1.2s10.3-0.7,14.8,1.9l398.4,230C434.1,236.6,437.8,243.1,437.8,250L437.8,250z"/>
	<path d="M1,19.9c0-3.3,0.9-6.6,2.5-9.4c5.2-9.1,16.9-12.2,26-7l398.4,230c5.9,3.4,9.5,9.7,9.5,16.5c0,3.3-0.9,6.6-2.5,9.4
		c-5.2,9.1-16.9,12.2-26,7L10.5,36.4C4.6,33.1,1,26.7,1,19.9 M0,19.9c0,6.9,3.6,13.7,10,17.4l398.4,230c9.5,5.5,21.8,2.2,27.3-7.3
		c1.8-3.1,2.7-6.6,2.7-9.9c0-6.9-3.6-13.7-10-17.4L30,2.7C20.5-2.8,8.2,0.5,2.7,10C0.9,13.1,0,16.5,0,19.9L0,19.9z"/>
</g>
<g>
	<path d="M836.8,19.9c0,7-3.7,13.5-9.7,16.9l-398.4,230c-4.5,2.6-9.7,3.3-14.8,1.9c-5-1.3-9.2-4.6-11.9-9.1
		c-1.7-2.9-2.6-6.3-2.6-9.7c0-7,3.7-13.5,9.7-16.9l398.4-230c4.5-2.6,9.7-3.3,14.8-1.9c5,1.4,9.2,4.6,11.8,9.1
		C835.9,13.2,836.8,16.5,836.8,19.9L836.8,19.9z"/>
	<path d="M400,250c0-6.8,3.6-13.1,9.5-16.5l398.4-230c9.1-5.2,20.7-2.1,26,7c1.7,2.9,2.5,6.1,2.5,9.4c0,6.8-3.6,13.1-9.5,16.5
		l-398.4,230c-9.1,5.2-20.7,2.1-26-6.9C400.9,256.6,400,253.3,400,250 M399,250c0,3.4,0.9,6.8,2.7,9.9c5.5,9.5,17.8,12.8,27.3,7.3
		l398.4-230c6.4-3.7,10-10.4,10-17.4c0-3.4-0.9-6.8-2.7-9.9c-5.5-9.5-17.8-12.8-27.3-7.3L409,232.7C402.6,236.4,399,243.1,399,250
		L399,250z"/>
</g>
</svg>
