<svg version="1.1" id="Layer_1" xmlns="http://www.w3.org/2000/svg" xmlns:xlink="http://www.w3.org/1999/xlink" x="0px" y="0px"
	 viewBox="0 0 269.97 837.34" style="enable-background:new 0 0 269.97 837.34;" xml:space="preserve">
		<g>
			<path d="M19.93,437.84c-3.4,0-6.75-0.9-9.69-2.6c-9.31-5.38-12.51-17.33-7.14-26.64l230-398.37c3.47-6,9.96-9.73,16.95-9.73
				c3.4,0,6.75,0.9,9.69,2.6c4.49,2.59,7.71,6.8,9.06,11.85c1.35,5.05,0.67,10.3-1.92,14.79l-230,398.37
				C33.41,434.11,26.91,437.84,19.93,437.84C19.93,437.84,19.93,437.84,19.93,437.84z"/>
			<path d="M250.04,1c3.31,0,6.58,0.87,9.44,2.53c9.07,5.24,12.19,16.88,6.95,25.95l-230,398.37c-3.38,5.85-9.7,9.48-16.51,9.48
				c-3.31,0-6.58-0.87-9.44-2.53c-9.07-5.24-12.19-16.88-6.95-25.95l230-398.37C236.91,4.63,243.23,1,250.04,1 M250.04,0
				c-6.93,0-13.68,3.59-17.38,9.98l-230,398.37c-5.5,9.53-2.21,21.82,7.32,27.32c3.13,1.81,6.56,2.66,9.94,2.66
				c6.93,0,13.68-3.59,17.38-9.98l230-398.37c5.5-9.53,2.21-21.82-7.32-27.32C256.86,0.86,253.43,0,250.04,0L250.04,0z"/>
		</g>
		<g>
			<path d="M250.04,836.84c-6.99,0-13.48-3.73-16.95-9.74L3.1,428.73c-2.59-4.49-3.28-9.74-1.92-14.79c1.35-5.05,4.57-9.25,9.06-11.85
				c2.94-1.7,6.29-2.6,9.69-2.6c6.99,0,13.48,3.73,16.95,9.74l230,398.37c2.59,4.49,3.28,9.74,1.92,14.79
				c-1.35,5.05-4.57,9.25-9.06,11.85C256.79,835.94,253.44,836.84,250.04,836.84C250.04,836.84,250.04,836.84,250.04,836.84z"/>
			<path d="M19.93,400c6.81,0,13.13,3.63,16.51,9.48l230,398.37c5.24,9.07,2.12,20.72-6.95,25.95c-2.87,1.66-6.13,2.53-9.44,2.53
				c-6.81,0-13.13-3.63-16.51-9.48l-230-398.37c-5.24-9.07-2.12-20.72,6.95-25.95C13.35,400.87,16.62,400,19.93,400 M19.93,399
				c-3.39,0-6.81,0.86-9.94,2.66c-9.53,5.5-12.82,17.79-7.32,27.32l230,398.37c3.69,6.4,10.45,9.98,17.38,9.98
				c3.39,0,6.81-0.86,9.94-2.66c9.53-5.5,12.82-17.79,7.32-27.32l-230-398.37C33.61,402.59,26.85,399,19.93,399L19.93,399z"/>
		</g>
</svg>