<?xml version="1.0" standalone="no"?>
<!DOCTYPE svg PUBLIC "-//W3C//DTD SVG 20010904//EN"
 "http://www.w3.org/TR/2001/REC-SVG-20010904/DTD/svg10.dtd">
<svg version="1.0" xmlns="http://www.w3.org/2000/svg"
 width="512.000000pt" height="512.000000pt" viewBox="0 0 512.000000 512.000000"
 preserveAspectRatio="xMidYMid meet">
<metadata>
Created by potrace 1.14, written by Peter Selinger 2001-2017
</metadata>
<g transform="translate(0.000000,512.000000) scale(0.100000,-0.100000)"
fill="#000000" stroke="none">
<path d="M4278 4320 c-9 -6 -149 -142 -311 -304 l-294 -295 -69 66 c-233 224
-506 379 -797 454 -90 23 -92 23 -157 34 -25 4 -54 9 -65 12 -38 9 -360 11
-430 3 -341 -40 -651 -169 -914 -380 -384 -308 -621 -745 -668 -1230 -11 -116
-7 -325 8 -405 4 -22 10 -60 14 -85 11 -79 47 -206 97 -340 20 -55 121 -250
158 -305 66 -97 148 -201 219 -274 39 -41 71 -77 71 -79 0 -3 -67 -72 -149
-154 -98 -98 -151 -158 -154 -176 -10 -51 32 -100 92 -107 22 -2 52 23 187
156 88 88 167 159 175 159 8 0 25 -9 37 -20 12 -11 23 -20 26 -20 2 0 28 -16
58 -36 131 -87 410 -201 563 -229 49 -8 147 -24 195 -30 47 -6 327 -7 370 -1
43 6 103 16 163 27 31 5 63 6 70 2 6 -4 359 -8 782 -9 849 -1 824 -2 844 59 7
21 10 617 10 1746 l0 1714 -29 28 c-29 30 -70 37 -102 19z m-1702 -216 c341
-53 638 -197 875 -423 l93 -88 -1131 -1132 c-622 -622 -1136 -1131 -1141
-1131 -16 0 -149 145 -218 238 -80 108 -190 325 -232 457 -243 771 117 1594
848 1942 142 68 354 128 515 146 78 8 312 3 391 -9z m1648 -3163 c-4 -5 -1024
-9 -1024 -5 0 1 32 21 71 44 157 93 354 265 471 410 188 234 337 567 374 835
2 17 8 59 13 95 9 68 7 353 -4 430 -36 256 -140 532 -281 747 l-57 85 219 219
219 219 3 -1537 c1 -845 -1 -1539 -4 -1542z m-514 2427 c104 -160 181 -356
221 -557 23 -116 33 -373 19 -471 -5 -30 -11 -73 -14 -95 -11 -82 -53 -238
-82 -305 -52 -120 -74 -164 -116 -237 -208 -356 -556 -625 -953 -737 -82 -23
-127 -31 -265 -51 -58 -9 -281 -9 -340 -1 -227 33 -376 78 -555 168 -72 36
-174 98 -200 120 -6 5 435 453 1110 1128 616 616 1121 1120 1122 1120 0 0 25
-37 53 -82z"/>
</g>
</svg>
